<?xml version="1.0" encoding="utf-8"?>
<!-- Designed by Vexels.com - 2016 All Rights Reserved - https://vexels.com/terms-and-conditions/  -->

<svg version="1.1" id="Layer_1" xmlns="http://www.w3.org/2000/svg" xmlns:xlink="http://www.w3.org/1999/xlink" x="0px" y="0px"
	 width="1200px" height="1200px" viewBox="0 0 1200 1200" enable-background="new 0 0 1200 1200" xml:space="preserve">
<g>
	<path fill="#575756" d="M603.651,1150c-65.404,0-117.205-55.775-117.205-121.797c0-68.745,51.801-123.178,117.205-123.178
		c64.172,0,116.052,54.433,116.052,123.178C719.703,1094.225,667.823,1150,603.651,1150z"/>
	<path fill="#575756" d="M786.338,578.922c-32.126,24.578-64.254,76.532-83.929,149.948c-7.914,29.414-35.892,70.036-96.377,70.036
		c-59.179,0-112.286-45.422-112.286-115.438c0-27.152,18.369-104.101,47.267-146.103c11.758-17.216,44.576-60.371,87.385-94.61
		c30.894-24.747,77.701-58.313,77.701-108.847c0-25.881-14.756-45.367-24.673-54.453c-14.831-14.296-36.966-27.246-82.62-27.246
		c-38.351,0-76.622,10.416-102.523,38.87c-9.838,10.432-11.144,14.371-25.9,46.728c-11.144,28.493-39.504,73.915-98.761,73.915
		c-60.485,0-103.679-50.628-103.679-116.685c0-59.698,44.348-141.358,120.895-189.298C443.177,72.06,523.491,50,601.192,50
		c161.706,0,225.879,59.623,261.695,97.187c33.353,36.312,69.17,86.921,69.17,182.801
		C932.057,462.257,841.905,536.058,786.338,578.922z"/>
</g>
</svg>
